HIERARCHY
ROOT hip
{
  OFFSET 0 0 0
  CHANNELS 6 Xposition Yposition Zposition Zrotation Yrotation Xrotation
  JOINT abdomen
  {
    OFFSET 0 20.6881 -0.73152
    CHANNELS 3 Zrotation Xrotation Yrotation
    JOINT chest
    {
      OFFSET 0 11.7043 -0.48768
      CHANNELS 3 Zrotation Xrotation Yrotation
      JOINT neck
      {
        OFFSET 0 22.1894 -2.19456
        CHANNELS 3 Zrotation Xrotation Yrotation
        JOINT head
        {
          OFFSET -0.24384 7.07133 1.2192
          CHANNELS 3 Zrotation Xrotation Yrotation
          JOINT leftEye
          {
            OFFSET 4.14528 8.04674 8.04672
            CHANNELS 3 Zrotation Xrotation Yrotation
            End Site
            {
              OFFSET 1 0 0
            }
          }
          JOINT rightEye
          {
            OFFSET -3.6576 8.04674 8.04672
            CHANNELS 3 Zrotation Xrotation Yrotation
            End Site
            {
              OFFSET 1 0 0
            }
          }
        }
      }
      JOINT rCollar
      {
        OFFSET -2.68224 19.2634 -4.8768
        CHANNELS 3 Zrotation Xrotation Yrotation
        JOINT rShldr
        {
          OFFSET -8.77824 -1.95073 1.46304
          CHANNELS 3 Zrotation Xrotation Yrotation
          JOINT rForeArm
          {
            OFFSET -28.1742 -1.7115 0.48768
            CHANNELS 3 Zrotation Xrotation Yrotation
            JOINT rHand
            {
              OFFSET -22.5879 0.773209 7.07136
              CHANNELS 3 Zrotation Xrotation Yrotation
              JOINT rThumb1
              {
                OFFSET -1.2192 -0.487915 3.41376
                CHANNELS 3 Zrotation Xrotation Yrotation
                JOINT rThumb2
                {
                  OFFSET -3.37035 -0.52449 3.41376
                  CHANNELS 3 Zrotation Xrotation Yrotation
                  End Site
                  {
                    OFFSET -1.78271 -1.18214 1.43049
                  }
                }
              }
              JOINT rIndex1
              {
                OFFSET -7.75947 0.938293 5.60832
                CHANNELS 3 Zrotation Xrotation Yrotation
                JOINT rIndex2
                {
                  OFFSET -2.54057 -0.884171 1.56538
                  CHANNELS 3 Zrotation Xrotation Yrotation
                  End Site
                  {
                    OFFSET -1.62519 -0.234802 1.16502
                  }
                }
              }
              JOINT rMid1
              {
                OFFSET -8.24714 1.18213 3.41376
                CHANNELS 3 Zrotation Xrotation Yrotation
                JOINT rMid2
                {
                  OFFSET -3.10165 -0.590103 1.0647
                  CHANNELS 3 Zrotation Xrotation Yrotation
                  End Site
                  {
                    OFFSET -2.48547 -0.328903 0.83742
                  }
                }
              }
              JOINT rRing1
              {
                OFFSET -8.82822 0.546677 1.51678
                CHANNELS 3 Zrotation Xrotation Yrotation
                JOINT rRing2
                {
                  OFFSET -2.60934 -0.819778 -0.0198488
                  CHANNELS 3 Zrotation Xrotation Yrotation
                  End Site
                  {
                    OFFSET -2.33842 -0.294052 0.168128
                  }
                }
              }
              JOINT rPinky1
              {
                OFFSET -8.27202 -0.0477905 -0.4584
                CHANNELS 3 Zrotation Xrotation Yrotation
                JOINT rPinky2
                {
                  OFFSET -1.82734 -0.647385 -0.700984
                  CHANNELS 3 Zrotation Xrotation Yrotation
                  End Site
                  {
                    OFFSET -1.69225 -0.51767 -0.607171
                  }
                }
              }
            }
          }
        }
      }
      JOINT lCollar
      {
        OFFSET 2.68224 19.2634 -4.8768
        CHANNELS 3 Zrotation Xrotation Yrotation
        JOINT lShldr
        {
          OFFSET 8.77824 -1.95073 1.46304
          CHANNELS 3 Zrotation Xrotation Yrotation
          JOINT lForeArm
          {
            OFFSET 28.1742 -1.7115 0.48768
            CHANNELS 3 Zrotation Xrotation Yrotation
            JOINT lHand
            {
              OFFSET 22.5879 0.773209 7.07136
              CHANNELS 3 Zrotation Xrotation Yrotation
              JOINT lThumb1
              {
                OFFSET 1.2192 -0.487915 3.41376
                CHANNELS 3 Zrotation Xrotation Yrotation
                JOINT lThumb2
                {
                  OFFSET 3.37035 -0.52449 3.41376
                  CHANNELS 3 Zrotation Xrotation Yrotation
                  End Site
                  {
                    OFFSET 1.78271 -1.18214 1.43049
                  }
                }
              }
              JOINT lIndex1
              {
                OFFSET 7.75947 0.938293 5.60832
                CHANNELS 3 Zrotation Xrotation Yrotation
                JOINT lIndex2
                {
                  OFFSET 2.54057 -0.884171 1.56538
                  CHANNELS 3 Zrotation Xrotation Yrotation
                  End Site
                  {
                    OFFSET 1.62519 -0.234802 1.16502
                  }
                }
              }
              JOINT lMid1
              {
                OFFSET 8.24714 1.18213 3.41376
                CHANNELS 3 Zrotation Xrotation Yrotation
                JOINT lMid2
                {
                  OFFSET 3.10165 -0.590103 1.0647
                  CHANNELS 3 Zrotation Xrotation Yrotation
                  End Site
                  {
                    OFFSET 2.48547 -0.328903 0.83742
                  }
                }
              }
              JOINT lRing1
              {
                OFFSET 8.82822 0.546677 1.51678
                CHANNELS 3 Zrotation Xrotation Yrotation
                JOINT lRing2
                {
                  OFFSET 2.60934 -0.819778 -0.0198488
                  CHANNELS 3 Zrotation Xrotation Yrotation
                  End Site
                  {
                    OFFSET 2.33842 -0.294052 0.168128
                  }
                }
              }
              JOINT lPinky1
              {
                OFFSET 8.27202 -0.0477905 -0.4584
                CHANNELS 3 Zrotation Xrotation Yrotation
                JOINT lPinky2
                {
                  OFFSET 1.82734 -0.647385 -0.700984
                  CHANNELS 3 Zrotation Xrotation Yrotation
                  End Site
                  {
                    OFFSET 1.69225 -0.51767 -0.607171
                  }
                }
              }
            }
          }
        }
      }
    }
  }
  JOINT rButtock
  {
    OFFSET -8.77824 4.35084 1.2192
    CHANNELS 3 Zrotation Xrotation Yrotation
    JOINT rThigh
    {
      OFFSET 0 -1.70687 -2.19456
      CHANNELS 3 Zrotation Xrotation Yrotation
      JOINT rShin
      {
        OFFSET 0 -36.8199 0.73152
        CHANNELS 3 Zrotation Xrotation Yrotation
        JOINT rFoot
        {
          OFFSET 0.73152 -45.1104 -5.12064
          CHANNELS 3 Zrotation Xrotation Yrotation
          End Site
          {
            OFFSET -1.1221 -3.69964 12.103
          }
        }
      }
    }
  }
  JOINT lButtock
  {
    OFFSET 8.77824 4.35084 1.2192
    CHANNELS 3 Zrotation Xrotation Yrotation
    JOINT lThigh
    {
      OFFSET 0 -1.70687 -2.19456
      CHANNELS 3 Zrotation Xrotation Yrotation
      JOINT lShin
      {
        OFFSET 0 -36.8199 0.73152
        CHANNELS 3 Zrotation Xrotation Yrotation
        JOINT lFoot
        {
          OFFSET -0.73152 -45.1104 -5.12064
          CHANNELS 3 Zrotation Xrotation Yrotation
          End Site
          {
            OFFSET 1.1221 -3.69964 12.103
          }
        }
      }
    }
  }
}
MOTION
Frames:	4
Frame Time:	0.03333
-15.4185 71.0533 -185.341 -11.812098503112793 -25.111101150512695 6.657399654388428 6.860570430755615 14.237600326538086 11.581298828125 -1.039790153503418 -7.963189601898193 3.3103599548339844 -2.6550304889678955 11.99899959564209 -0.2881339490413666 7.352629661560059 -25.672304153442383 1.289279818534851 -0.0 0.0 -0.0 -0.0 0.0 -0.0 -1.2486000189500246e-13 -2.2647699958900508e-13 -8.213229900876085e-13 57.79619598388672 49.65860366821289 3.9284820556640625 -27.53380012512207 -28.32050132751465 64.57199096679688 -0.059484295547008514 6.975501537322998 0.985194981098175 -1.173509955876284e-09 -6.319919698682952e-09 2.3993100839447834e-09 -2.0142298939873626e-09 -1.0998599364597794e-08 4.154979915682588e-09 -1.1735000748913649e-09 -6.319919698682952e-09 2.399299869892957e-09 7.730909824371338 5.474879741668701 0.4173140823841095 -1.173509955876284e-09 -6.319919698682952e-09 2.3993100839447834e-09 2.9055399894714355 0.9651829600334167 0.10290199518203735 -1.1735000748913649e-09 -6.3199299127347786e-09 2.3993100839447834e-09 10.27859878540039 0.73180091381073 0.025912316516041756 -1.173509955876284e-09 -6.319919698682952e-09 2.3993100839447834e-09 2.221669912338257 -0.733487069606781 -0.208919957280159 -1.2489499452011943e-13 -2.2647798892348747e-13 -8.21593010638666e-13 -58.21089553833008 31.545101165771484 -20.974302291870117 22.224599838256836 -16.09850311279297 -44.400901794433594 0.010035400278866291 -2.8585100173950195 0.4020749628543854 2.7070299335463233e-09 1.0404298755872787e-08 1.204179866931554e-09 4.674879594546155e-09 1.7973199817333807e-08 2.0822699120515153e-09 2.7070299335463233e-09 1.0404298755872787e-08 1.204189969961078e-09 -7.730909824371338 5.474879741668701 -0.4173140823841095 2.7070299335463233e-09 1.0404298755872787e-08 1.204179866931554e-09 -2.9055399894714355 0.9651829600334167 -0.10290199518203735 2.7070197194944967e-09 1.0404298755872787e-08 1.204179866931554e-09 -10.27859878540039 0.73180091381073 -0.025912316516041756 2.707039925553545e-09 1.0404298755872787e-08 1.2041699859466348e-09 -2.221669912338257 -0.733487069606781 0.208919957280159 -2.0321699480147914e-16 0.0 -3.8825099822884138e-19 -3.822570323944092 -0.6957010626792908 -6.453449726104736 -0.3121439814567566 46.43010330200195 1.803880214691162 -16.750900268554688 -18.86480140686035 -30.895002365112305 2.0321699480147914e-16 0.0 3.8825099822884138e-19 63.114295959472656 -52.05840301513672 58.83769989013672 2.21740984916687 70.497802734375 -2.395049571990967 0.29596102237701416 -1.2341601848602295 0.7146470546722412
-15.4303 70.8902 -185.31300000000002 -11.883299827575684 -25.185001373291016 6.786400318145752 6.899729251861572 13.885899543762207 11.672901153564453 -1.1206799745559692 -7.9047417640686035 3.328779935836792 -2.5843701362609863 11.94100284576416 -0.28216397762298584 7.316410541534424 -25.30160140991211 1.2653101682662964 -0.0 0.0 -0.0 -0.0 0.0 -0.0 7.744400552702618e-14 -5.703929353579468e-14 -8.070799887779923e-13 58.364498138427734 49.59239959716797 3.3008174896240234 -27.637399673461914 -28.767000198364258 65.28209686279297 -0.035371292382478714 5.377750873565674 0.75798499584198 -3.2141298511589866e-09 -1.0459400456852563e-08 5.1344097862227045e-09 -5.532309721445472e-09 -1.8221200548396155e-08 8.890999048105641e-09 -3.2141298511589866e-09 -1.0459400456852563e-08 5.1344097862227045e-09 7.730909824371338 5.474879741668701 0.4173140823841095 -3.2141298511589866e-09 -1.0459400456852563e-08 5.1344097862227045e-09 2.9055399894714355 0.9651829600334167 0.10290199518203735 -3.21412008119637e-09 -1.0459400456852563e-08 5.1344097862227045e-09 10.27859878540039 0.73180091381073 0.025912316516041756 -3.2141298511589866e-09 -1.0459400456852563e-08 5.1344097862227045e-09 2.221669912338257 -0.733487069606781 -0.208919957280159 7.746679410143911e-14 -5.703790440176118e-14 -8.072579605646057e-13 -58.06399917602539 31.610204696655273 -20.966596603393555 22.28329849243164 -16.188796997070312 -44.56209945678711 0.010172300040721893 -2.878159999847412 0.4048439562320709 2.8525197759421417e-09 8.80655992574475e-09 7.192519357879235e-10 4.930819752502202e-09 1.5217199944572712e-08 1.2430199092250405e-09 2.852510005979525e-09 8.80655992574475e-09 7.19253989700519e-10 -7.730909824371338 5.474879741668701 -0.4173140823841095 2.852510005979525e-09 8.806550155782134e-09 7.192400008904087e-10 -2.9055399894714355 0.9651829600334167 -0.10290199518203735 2.852510005979525e-09 8.806550155782134e-09 7.192419992918531e-10 -10.27859878540039 0.73180091381073 -0.025912316516041756 2.8525197759421417e-09 8.806550155782134e-09 7.19230952572758e-10 -2.221669912338257 -0.733487069606781 0.208919957280159 -2.0321699480147914e-16 0.0 -3.8825099822884138e-19 -3.624959707260132 -0.5571210384368896 -6.124499797821045 -0.3063019812107086 46.19540023803711 1.7978501319885254 -17.05129623413086 -18.866798400878906 -31.407299041748047 2.0321699480147914e-16 0.0 3.8825099822884138e-19 63.29909896850586 -52.00519561767578 59.02799606323242 2.2488996982574463 70.69081115722656 -2.4263596534729004 0.3619040250778198 -2.4409801959991455 1.054780125617981
-15.4251 70.6649 -185.249 -11.954798698425293 -25.039995193481445 6.890100479125977 7.065359592437744 13.67020034790039 11.665799140930176 -1.1928600072860718 -7.884680271148682 3.3248300552368164 -2.528749942779541 11.819998741149902 -0.28158697485923767 7.222919940948486 -24.916004180908203 1.2214103937149048 -0.0 0.0 -0.0 -0.0 0.0 -0.0 1.096109897183277e-13 8.831939696187126e-15 -8.00182945077943e-13 58.877098083496094 49.41990661621094 2.733771800994873 -27.727298736572266 -29.178709030151367 65.94029998779297 -0.016570502892136574 3.7337193489074707 0.5254949927330017 -3.5747897975113574e-09 -1.1516699593983049e-08 5.833679761479971e-09 -6.156299470205795e-09 -2.0047499660336143e-08 1.0099199698743178e-08 -3.5747800275487407e-09 -1.1516699593983049e-08 5.833679761479971e-09 7.730909824371338 5.474879741668701 0.4173140823841095 -3.5747800275487407e-09 -1.1516699593983049e-08 5.833679761479971e-09 2.9055399894714355 0.9651829600334167 0.10290199518203735 -3.5747800275487407e-09 -1.1516699593983049e-08 5.833679761479971e-09 10.27859878540039 0.73180091381073 0.025912316516041756 -3.5747800275487407e-09 -1.1516699593983049e-08 5.833679761479971e-09 2.221669912338257 -0.733487069606781 -0.208919957280159 1.096340019094387e-13 8.83518044424332e-15 -8.003339744405702e-13 -57.94860076904297 31.62849998474121 -21.025299072265625 22.325899124145508 -16.254602432250977 -44.67979431152344 0.010423699393868446 -2.913900136947632 0.40987899899482727 2.8689799425052342e-09 9.218280361267261e-09 7.713579774915047e-10 4.9591699635698205e-09 1.5929900953892684e-08 1.3334300330569704e-09 2.8689799425052342e-09 9.218269703126225e-09 7.713589766922269e-10 -7.730909824371338 5.474879741668701 -0.4173140823841095 2.8689799425052342e-09 9.218259044985189e-09 7.713439886813944e-10 -2.9055399894714355 0.9651829600334167 -0.10290199518203735 2.8689799425052342e-09 9.218269703126225e-09 7.713490401961565e-10 -10.27859878540039 0.73180091381073 -0.025912316516041756 2.868989712467851e-09 9.218269703126225e-09 7.713389926777836e-10 -2.221669912338257 -0.733487069606781 0.208919957280159 -2.0321699480147914e-16 0.0 -3.8825099822884138e-19 -3.358910322189331 -0.2564910650253296 -5.955570220947266 -0.29639697074890137 45.915496826171875 1.8080400228500366 -17.50429916381836 -19.08040428161621 -32.006103515625 2.0321699480147914e-16 0.0 3.8825099822884138e-19 63.58049774169922 -52.106101989746094 59.16729736328125 2.3019795417785645 71.01620483398438 -2.4834694862365723 0.4102330207824707 -3.2265102863311768 1.2772600650787354
-15.4621 70.4444 -185.169 -12.20300006866455 -24.862201690673828 6.888099193572998 7.356359481811523 13.590100288391113 11.559999465942383 -1.2563297748565674 -7.903031349182129 3.298499822616577 -2.4882099628448486 11.636300086975098 -0.2863979637622833 7.072630405426025 -24.51559829711914 1.157770037651062 -0.0 0.0 -0.0 -0.0 0.0 -0.0 -2.8357897356289657e-14 -2.886379964249855e-14 -8.006300158437674e-13 59.33009338378906 49.14189910888672 2.2303500175476074 -27.80609893798828 -29.559202194213867 66.54429626464844 -0.004135200288146734 2.0434701442718506 0.28727999329566956 -2.2554598189117314e-09 -9.4918393145349e-09 4.4971097956647554e-09 -3.88619003643953e-09 -1.6477599729114445e-08 7.779699551235808e-09 -2.2554598189117314e-09 -9.4918393145349e-09 4.4971097956647554e-09 7.730909824371338 5.474879741668701 0.4173140823841095 -2.2554598189117314e-09 -9.4918393145349e-09 4.497120009716582e-09 2.9055399894714355 0.9651829600334167 0.10290199518203735 -2.2554598189117314e-09 -9.4918393145349e-09 4.497120009716582e-09 10.27859878540039 0.73180091381073 0.025912316516041756 -2.255470032963558e-09 -9.4918393145349e-09 4.497120009716582e-09 2.221669912338257 -0.733487069606781 -0.208919957280159 -2.8392698551960548e-14 -2.88590020478853e-14 -8.008219738384059e-13 -57.86489486694336 31.600000381469727 -21.150299072265625 22.35270118713379 -16.296401977539062 -44.7538948059082 0.010798299685120583 -2.9657297134399414 0.4171820282936096 2.7564297511162295e-09 1.1639500030469208e-08 1.3604999349325908e-09 4.7599297836598e-09 2.0111500020902895e-08 2.3534998394580953e-09 2.756419759109008e-09 1.1639500030469208e-08 1.3604999349325908e-09 -7.730909824371338 5.474879741668701 -0.4173140823841095 2.756419759109008e-09 1.1639399666307781e-08 1.3604900539476716e-09 -2.9055399894714355 0.9651829600334167 -0.10290199518203735 2.7564297511162295e-09 1.1639500030469208e-08 1.3604999349325908e-09 -10.27859878540039 0.73180091381073 -0.025912316516041756 2.7564297511162295e-09 1.1639500030469208e-08 1.3604900539476716e-09 -2.221669912338257 -0.733487069606781 0.208919957280159 -2.0321699480147914e-16 0.0 -3.8825099822884138e-19 -3.023319959640503 0.20605699717998505 -5.946889400482178 -0.28205496072769165 45.590301513671875 1.834190011024475 -18.118297576904297 -19.50040054321289 -32.69550323486328 2.0321699480147914e-16 0.0 3.8825099822884138e-19 63.959896087646484 -52.361507415771484 59.25790023803711 2.37926983833313 71.47390747070312 -2.5689499378204346 0.4311789870262146 -3.5909504890441895 1.3814400434494019
